# xmcd
#
# Track frame offsets: 
#        150
#        20044
#        40061
#        59241
#        74791
#        92578
#        110888
#        129341
#        143172
#        160218
#        181437
#        200160
#        220083
#        242376
#        261084
#        276062
#        291887
#        312145
#
# Disc length: 4544 seconds
#
# Revision: 0
# Processed by: cddbd v1.5.2PL0 Copyright (c) Steve Scherf et al.
# Submitted via: ExactAudioCopy v1.0b3
#
DISCID=1c11be12
DTITLE=Jez Lowe - Heads Up
DYEAR=2012
DGENRE=Folk
TTITLE0=Old Bones
TTITLE1=Back in Durham Gaol
TTITLE2=A Small Coal Song
TTITLE3=Father Mallory's Dance
TTITLE4=Dover, Delaware
TTITLE5=High Part of the Town
TTITLE6=London Danny
TTITLE7=These Coal Town Days
TTITLE8=The Bergen
TTITLE9=Galloways
TTITLE10=Yankee Boots
TTITLE11=Black Diamonds
TTITLE12=Greek Lightning
TTITLE13=You Can't Take It with You
TTITLE14=Last of the Widows
TTITLE15=We'll Hunt Him Down
TTITLE16=My Blood
TTITLE17=The Simian Son
EXTD=
EXTT0=
EXTT1=
EXTT2=
EXTT3=
EXTT4=
EXTT5=
EXTT6=
EXTT7=
EXTT8=
EXTT9=
EXTT10=
EXTT11=
EXTT12=
EXTT13=
EXTT14=
EXTT15=
EXTT16=
EXTT17=
PLAYORDER=
